<?xml version="1.0" encoding="UTF-8" standalone="no"?>
<!-- Created with Inkscape (http://www.inkscape.org/) -->

<svg
   xmlns:dc="http://purl.org/dc/elements/1.1/"
   xmlns:cc="http://creativecommons.org/ns#"
   xmlns:rdf="http://www.w3.org/1999/02/22-rdf-syntax-ns#"
   xmlns:svg="http://www.w3.org/2000/svg"
   xmlns="http://www.w3.org/2000/svg"
   xmlns:sodipodi="http://sodipodi.sourceforge.net/DTD/sodipodi-0.dtd"
   xmlns:inkscape="http://www.inkscape.org/namespaces/inkscape"
   version="1.1"
   id="svg2"
   width="400"
   height="400"
   viewBox="0 0 400 400"
   sodipodi:docname="CA.svg"
   inkscape:version="0.92.4 (5da689c313, 2019-01-14)">
  <metadata
     id="metadata8">
    <rdf:RDF>
      <cc:Work
         rdf:about="">
        <dc:format>image/svg+xml</dc:format>
        <dc:type
           rdf:resource="http://purl.org/dc/dcmitype/StillImage" />
        <dc:title></dc:title>
      </cc:Work>
    </rdf:RDF>
  </metadata>
  <defs
     id="defs6" />
  <sodipodi:namedview
     pagecolor="#ffffff"
     bordercolor="#666666"
     borderopacity="1"
     objecttolerance="10"
     gridtolerance="10"
     guidetolerance="10"
     inkscape:pageopacity="0"
     inkscape:pageshadow="2"
     inkscape:window-width="1920"
     inkscape:window-height="1001"
     id="namedview4"
     showgrid="false"
     inkscape:zoom="0.59"
     inkscape:cx="200"
     inkscape:cy="200"
     inkscape:window-x="-9"
     inkscape:window-y="-9"
     inkscape:window-maximized="1"
     inkscape:current-layer="svg2" />
  <g
     id="g817"
     transform="translate(5.0688148,4.7850087)">
    <path
       style="fill:#8f8f8f"
       d="m 176.75,352.33772 c 0.6875,-0.27741 1.8125,-0.27741 2.5,0 0.6875,0.27741 0.125,0.50439 -1.25,0.50439 -1.375,0 -1.9375,-0.22698 -1.25,-0.50439 z M 61.029883,350.88741 c -4.363078,-1.74129 -8.993917,-5.89659 -11.039114,-9.9055 -1.827794,-3.58278 -1.989167,-5.89073 -1.971197,-28.19207 L 48.039144,288.5 51.736259,293 C 77.121955,323.89859 106.33768,342.18218 142,349.48824 l 11.5,2.35598 -45,0.0145 c -27.267488,0.009 -45.973364,-0.37397 -47.470117,-0.97132 z m 141.864867,-1.47696 c 23.15555,-4.85702 39.39837,-12.00563 58.20971,-25.61863 12.95258,-9.37326 15.84598,-13.15371 16.62263,-21.71877 1.22839,-13.54685 -8.19191,-24.11195 -21.44497,-24.05109 -5.86783,0.0269 -10.61132,2.29692 -19.78212,9.46661 -10.22297,7.99227 -26.93951,16.28685 -36.19379,17.95898 -1.54342,0.27887 -4.02266,0.77339 -5.50944,1.09893 l -2.70323,0.59188 3.26868,-6.81918 c 1.79777,-3.75055 5.02016,-10.75668 7.16085,-15.56918 l 3.89217,-8.75 h 60.13116 60.13115 l 3.58128,7.75 c 3.17831,6.87797 5.95356,13.09994 19.32495,43.32557 2.94025,6.64634 3.22793,8.02248 2.34534,11.21895 -1.3035,4.72092 -5.20108,9.29341 -10.01507,11.74933 -3.708,1.89168 -6.24987,1.95286 -77.12421,1.85643 L 191.5,351.80057 Z M 166.29159,308.2575 c 3.73537,-0.19293 9.58537,-0.19149 13,0.003 3.41462,0.19468 0.35841,0.35253 -6.79159,0.35078 -7.15,-0.002 -9.94379,-0.16103 -6.20841,-0.35396 z M 146.5,306 c -0.33992,-0.55 -1.60398,-1.01493 -2.80902,-1.03317 -4.13578,-0.0626 -19.54673,-6.63884 -28.24092,-12.05107 C 105.36689,286.63888 89.672883,271.71385 82.941428,262 67.150475,239.21281 61.066993,211.44387 65.468749,182.24342 c 5.058022,-33.55401 27.125711,-63.30478 58.891471,-79.39513 25.52665,-12.930046 59.9283,-14.540751 86.89747,-4.06859 9.22432,3.58182 24.30603,12.25387 22.86248,13.14603 -0.57154,0.35323 -2.22358,3.32695 -3.6712,6.60825 -1.44762,3.28131 -3.76465,8.44102 -5.14896,11.46602 -4.52702,9.89249 -28.40501,63.18269 -34.50175,77 -3.27621,7.425 -7.31771,16.425 -8.98113,20 -1.66342,3.575 -5.39736,11.9 -8.29766,18.5 -2.90029,6.6 -6.62108,14.925 -8.26842,18.5 -10.15557,22.03933 -18.23976,41.20926 -17.72778,42.03765 0.32712,0.52929 0.36976,0.96235 0.0948,0.96235 -0.275,0 -0.77811,-0.45 -1.11803,-1 z m 79.28054,-72.55279 c -0.44688,-0.44689 5.93915,-16.04786 10.21178,-24.94721 0.52812,-1.1 3.68646,-8.3 7.01853,-16 18.51592,-42.78794 22.39371,-51.4963 22.91489,-51.45995 0.60499,0.0422 1.83192,2.66835 18.43552,39.45995 5.70879,12.65 13.36292,29.5948 17.00918,37.6551 3.64626,8.06031 6.62956,14.92281 6.62956,15.25 0,0.75042 -81.46942,0.79214 -82.21946,0.0421 z M 23.078947,231.41667 c 0.04798,-1.16495 0.284941,-1.4019 0.604167,-0.60417 0.288871,0.72187 0.253344,1.58437 -0.07895,1.91667 -0.332292,0.33229 -0.568641,-0.25834 -0.52522,-1.3125 z M 349.57332,224.3134 C 347.96364,220.56603 344.51073,212.775 341.90018,207 339.28963,201.225 333.69759,188.625 329.47343,179 313.37685,142.323 291.70936,93.246787 288.96516,87.25 L 286.10508,81 h -9.11156 c -7.0032,0 -8.94641,0.289241 -8.39788,1.25 0.39253,0.6875 -0.59341,0.05944 -2.19098,-1.395681 C 261.25196,76.161038 247.05768,67.046338 238.66708,63.042938 224.38437,56.228246 206.48941,51.112628 188.5,48.701719 c -1.65,-0.22113 31.0924,-0.469479 72.7609,-0.551887 75.72639,-0.149764 75.76299,-0.148847 80.36145,2.012684 5.58095,2.623353 10.06248,8.465778 10.86936,14.170025 0.32422,2.292102 0.45873,40.758489 0.29889,85.480859 L 352.5,231.12679 Z M 20.354955,200.5 c -0.003,-4.95 0.166052,-7.10108 0.375776,-4.78017 0.209724,2.3209 0.212217,6.3709 0.0055,9 -0.206677,2.62909 -0.378269,0.73017 -0.381317,-4.21983 z m 2.80294,-31.5 c 0,-1.375 0.226973,-1.9375 0.504386,-1.25 0.277412,0.6875 0.277412,1.8125 0,2.5 -0.277413,0.6875 -0.504386,0.125 -0.504386,-1.25 z m 2.921052,-12.58333 c 0.04798,-1.16495 0.284941,-1.4019 0.604167,-0.60417 0.288871,0.72187 0.253344,1.58437 -0.07895,1.91667 -0.332292,0.33229 -0.568641,-0.25834 -0.52522,-1.3125 z M 255.26375,123.28242 c 1.52006,-0.22986 3.77006,-0.22371 5,0.0136 1.22994,0.23736 -0.0138,0.42542 -2.76375,0.41792 -2.75,-0.008 -3.75631,-0.20172 -2.23625,-0.43157 z M 48.03168,87.907284 c -0.03042,-23.61486 0.05787,-24.762058 2.220461,-28.851579 1.238677,-2.342374 4.207527,-5.675652 6.597444,-7.407283 L 61.194889,48.5 110.34744,48.313029 159.5,48.126059 l -13,2.280574 C 111.71228,56.509401 83.610534,72.250915 58.858527,99.5 c -3.49719,3.85 -7.356771,8.35 -8.576847,10 l -2.21832,3 z"
       id="path821"
       inkscape:connector-curvature="0" />
    <path
       style="fill:#3a3a3a"
       d="M 142,349.48824 C 109.88071,342.90803 85.175902,328.82869 61.087531,303.376 34.485026,275.26678 20.982269,240.47731 21.011196,200.12047 21.044131,154.17191 37.900951,116.94341 72.84545,85.643875 c 54.54614,-48.856587 140.5937,-50.092367 195.98339,-2.814634 9.44771,8.064069 12.55007,18.437679 8.2753,27.670759 -6.56895,14.18826 -24.05075,16.66799 -36.74115,5.2116 C 234.733,110.62907 220.70091,102.44346 211.53004,98.89193 189.72317,90.446957 161.97179,89.677587 138.6783,96.872214 113.20284,104.74078 87.809517,126.63632 75.058443,151.72879 63.285087,174.89724 60.81567,205.5206 68.537702,232.59284 77.441966,263.8098 107.72289,294.50028 138.5,303.50141 c 3.3,0.96512 6.675,1.9901 7.5,2.27772 9.61138,3.35085 32.64519,4.22483 44.5,1.68849 3.85,-0.82372 8.25024,-1.72457 9.77832,-2.00189 9.25791,-1.6802 26.01247,-9.99565 36.22168,-17.97716 9.1708,-7.16969 13.91429,-9.43966 19.78212,-9.46661 13.25306,-0.0609 22.67336,10.50424 21.44497,24.05109 -0.77665,8.56506 -3.67005,12.34551 -16.62263,21.71877 -19.14906,13.85739 -35.17811,20.83521 -59.01223,25.6894 -17.25295,3.51382 -42.96017,3.51683 -60.09223,0.007 z"
       id="path819"
       inkscape:connector-curvature="0" />
  </g>
</svg>
